<svg xmlns="http://www.w3.org/2000/svg" viewBox="0 0 860 420" width="860" height="420">
<style>
  text { font-family: -apple-system, BlinkMacSystemFont, "Segoe UI", sans-serif; }
  .axis { fill: #888; font-size: 11px; }
  .title { fill: #111; font-size: 14px; font-weight: 600; }
  .xlbl { fill: #555; font-size: 11px; text-anchor: middle; }
  .ylbl { fill: #888; font-size: 11px; text-anchor: end; }
  .legend { fill: #444; font-size: 11px; }
  .pct { fill: #fff; font-size: 9px; text-anchor: middle; font-weight: 500; }
  .pct-top { fill: #555; font-size: 9px; text-anchor: middle; }
</style>
<rect width="860" height="420" fill="#fafaf7" rx="8"/>
<text x="430" y="30" class="title" text-anchor="middle">Token Count: Original vs TokenMesh Modes</text>
<text x="430" y="46" class="axis" text-anchor="middle" font-size="10">Lower is better — real production prompts</text>
<line x1="72" y1="330.0" x2="836" y2="330.0" stroke="#e8e6e0" stroke-width="1"/>
<text x="66" y="334.0" class="ylbl">0</text>
<line x1="72" y1="287.2" x2="836" y2="287.2" stroke="#e8e6e0" stroke-width="1"/>
<text x="66" y="291.2" class="ylbl">500</text>
<line x1="72" y1="244.4" x2="836" y2="244.4" stroke="#e8e6e0" stroke-width="1"/>
<text x="66" y="248.4" class="ylbl">1K</text>
<line x1="72" y1="201.6" x2="836" y2="201.6" stroke="#e8e6e0" stroke-width="1"/>
<text x="66" y="205.6" class="ylbl">1K</text>
<line x1="72" y1="158.8" x2="836" y2="158.8" stroke="#e8e6e0" stroke-width="1"/>
<text x="66" y="162.8" class="ylbl">2K</text>
<line x1="72" y1="115.9" x2="836" y2="115.9" stroke="#e8e6e0" stroke-width="1"/>
<text x="66" y="119.9" class="ylbl">2K</text>
<line x1="72" y1="73.1" x2="836" y2="73.1" stroke="#e8e6e0" stroke-width="1"/>
<text x="66" y="77.1" class="ylbl">3K</text>
<line x1="72" y1="56" x2="72" y2="330" stroke="#ccc" stroke-width="1"/>
<line x1="72" y1="330.0" x2="836" y2="330.0" stroke="#ccc" stroke-width="1"/>
<rect x="84.2" y="294.7" width="27.5" height="35.3" fill="#d0cec7" rx="2"/>
<rect x="117.8" y="305.4" width="27.5" height="24.6" fill="#6b8cba" rx="2"/>
<text x="131.6" y="321.7" class="pct">30%</text>
<rect x="151.5" y="304.3" width="27.5" height="25.7" fill="#52a47a" rx="2"/>
<text x="165.2" y="321.2" class="pct">27%</text>
<rect x="185.1" y="307.7" width="27.5" height="22.3" fill="#1a5c3a" rx="2"/>
<text x="198.8" y="322.9" class="pct">37%</text>
<text x="148.4" y="346.0" class="xlbl">
  <tspan x="148.4" dy="0">Trading</tspan>
  <tspan x="148.4" dy="14">prompt</tspan>
</text>
<rect x="237.0" y="271.4" width="27.5" height="58.6" fill="#d0cec7" rx="2"/>
<rect x="270.6" y="289.2" width="27.5" height="40.8" fill="#6b8cba" rx="2"/>
<text x="284.4" y="313.6" class="pct">30%</text>
<rect x="304.3" y="293.2" width="27.5" height="36.8" fill="#52a47a" rx="2"/>
<text x="318.0" y="315.6" class="pct">37%</text>
<rect x="337.9" y="305.2" width="27.5" height="24.8" fill="#1a5c3a" rx="2"/>
<text x="351.6" y="321.6" class="pct">58%</text>
<text x="301.2" y="346.0" class="xlbl">
  <tspan x="301.2" dy="0">Trading</tspan>
  <tspan x="301.2" dy="14">(full)</tspan>
</text>
<rect x="389.8" y="314.2" width="27.5" height="15.8" fill="#d0cec7" rx="2"/>
<rect x="423.4" y="318.9" width="27.5" height="11.1" fill="#6b8cba" rx="2"/>
<text x="437.2" y="314.9" class="pct-top">29%</text>
<rect x="457.1" y="319.7" width="27.5" height="10.3" fill="#52a47a" rx="2"/>
<text x="470.8" y="315.7" class="pct-top">35%</text>
<rect x="490.7" y="323.4" width="27.5" height="6.6" fill="#1a5c3a" rx="2"/>
<text x="504.4" y="319.4" class="pct-top">58%</text>
<text x="454.0" y="346.0" class="xlbl">FAQ doc</text>
<rect x="542.6" y="227.2" width="27.5" height="102.8" fill="#d0cec7" rx="2"/>
<rect x="576.2" y="258.1" width="27.5" height="71.9" fill="#6b8cba" rx="2"/>
<text x="590.0" y="298.0" class="pct">30%</text>
<rect x="609.9" y="259.8" width="27.5" height="70.2" fill="#52a47a" rx="2"/>
<text x="623.6" y="298.9" class="pct">32%</text>
<rect x="643.5" y="288.9" width="27.5" height="41.1" fill="#1a5c3a" rx="2"/>
<text x="657.2" y="313.4" class="pct">60%</text>
<text x="606.8" y="346.0" class="xlbl">
  <tspan x="606.8" dy="0">Long</tspan>
  <tspan x="606.8" dy="14">article</tspan>
</text>
<rect x="695.4" y="73.1" width="27.5" height="256.9" fill="#d0cec7" rx="2"/>
<rect x="729.0" y="150.2" width="27.5" height="179.8" fill="#6b8cba" rx="2"/>
<text x="742.8" y="244.1" class="pct">30%</text>
<rect x="762.7" y="167.3" width="27.5" height="162.7" fill="#52a47a" rx="2"/>
<text x="776.4" y="252.7" class="pct">37%</text>
<rect x="796.3" y="240.1" width="27.5" height="89.9" fill="#1a5c3a" rx="2"/>
<text x="810.0" y="289.0" class="pct">65%</text>
<text x="759.6" y="346.0" class="xlbl">
  <tspan x="759.6" dy="0">RAG</tspan>
  <tspan x="759.6" dy="14">context</tspan>
</text>
<rect x="176.8" y="389" width="12" height="12" fill="#d0cec7" rx="2"/>
<text x="192.8" y="398.0" class="legend">Original</text>
<rect x="262.8" y="389" width="12" height="12" fill="#6b8cba" rx="2"/>
<text x="278.8" y="398.0" class="legend">Browser Demo (TF-IDF)</text>
<rect x="433.2" y="389" width="12" height="12" fill="#52a47a" rx="2"/>
<text x="449.2" y="398.0" class="legend">Python Lite</text>
<rect x="538.8" y="389" width="12" height="12" fill="#1a5c3a" rx="2"/>
<text x="554.8" y="398.0" class="legend">Python Aggressive</text>
</svg>